# Blender 3.4.1
# www.blender.org
mtllib rat2.mtl
o TomGroup_0
v -0.108429 -0.018659 0.047270
v -0.172491 0.000000 0.051635
v -0.108429 0.018659 0.047270
v -0.072307 -0.034141 0.007837
v -0.091529 -0.025795 0.002154
v -0.092266 -0.040971 0.003373
v -0.072307 -0.034141 0.007837
v -0.071682 -0.032024 0.005310
v -0.091529 -0.025795 0.002154
v -0.071180 -0.037082 0.006861
v -0.092266 -0.040971 0.003373
v -0.128455 -0.023785 0.090387
v -0.115949 -0.019483 0.089318
v -0.112392 -0.034763 0.105597
v -0.121676 -0.014022 0.096229
v -0.112392 -0.034763 0.105597
v -0.115949 -0.019483 0.089318
v -0.121676 -0.014022 0.096229
v -0.128455 -0.023785 0.090387
v -0.112392 -0.034763 0.105597
v -0.110409 -0.017772 0.078788
v -0.121676 -0.014022 0.096229
v -0.115949 -0.019483 0.089318
v -0.113572 0.000000 0.094115
v -0.121676 -0.014022 0.096229
v -0.110409 -0.017772 0.078788
v 0.323389 -0.000963 0.015098
v 0.433547 -0.000002 0.015920
v 0.323268 0.000000 0.018954
v 0.049224 -0.052275 0.029297
v 0.053517 -0.041370 0.008379
v 0.058951 -0.044015 0.005729
v -0.128455 -0.023785 0.090387
v -0.110409 -0.017772 0.078788
v -0.115949 -0.019483 0.089318
v -0.072307 0.034141 0.007837
v -0.091529 0.025795 0.002154
v -0.071682 0.032024 0.005310
v -0.128455 0.023785 0.090387
v -0.112392 0.034763 0.105597
v -0.115949 0.019483 0.089318
v -0.121676 0.014022 0.096229
v -0.115949 0.019483 0.089318
v -0.112392 0.034763 0.105597
v -0.121676 0.014022 0.096229
v -0.112392 0.034763 0.105597
v -0.128455 0.023785 0.090387
v -0.110409 0.017772 0.078788
v -0.115949 0.019483 0.089318
v -0.121676 0.014022 0.096229
v -0.121676 0.014022 0.096229
v -0.113572 0.000000 0.094115
v -0.110409 0.017772 0.078788
v 0.323389 0.000963 0.015098
v 0.323268 0.000000 0.018954
v 0.433547 0.000002 0.015920
v 0.058951 0.044015 0.005729
v 0.053517 0.041370 0.008379
v 0.049224 0.052275 0.029297
v -0.110409 0.017772 0.078788
v -0.128455 0.023785 0.090387
v -0.115949 0.019483 0.089318
v 0.031965 -0.044537 0.095643
v 0.052110 -0.028759 0.026331
v 0.108418 -0.011684 0.036144
v 0.053141 0.000000 0.114524
v 0.114068 0.000000 0.054279
v 0.018209 0.000000 0.119800
v -0.110409 -0.017772 0.078788
v -0.113572 0.000000 0.094115
v -0.048938 -0.040802 0.045089
v -0.081887 -0.040119 0.038755
v -0.108429 -0.018659 0.047270
v 0.029789 -0.049969 0.047844
v 0.016099 -0.033860 0.030530
v -0.055356 -0.026294 0.032461
v -0.056226 -0.026294 0.025306
v -0.081887 -0.040119 0.038755
v -0.108429 -0.018659 0.047270
v 0.052110 -0.028759 0.026331
v -0.108429 -0.018659 0.047270
v -0.183894 -0.011469 0.070648
v -0.172491 0.000000 0.051635
v -0.190366 0.000000 0.072012
v -0.121296 0.000000 0.097744
v -0.121676 -0.014022 0.096229
v -0.128455 -0.023785 0.090387
v -0.190366 0.000000 0.072012
v -0.183894 -0.011469 0.070648
v 0.053517 -0.041370 0.008379
v 0.009999 -0.047519 0.003515
v 0.058951 -0.044015 0.005729
v 0.010169 -0.032645 0.001857
v 0.058376 -0.037484 0.006176
v -0.108429 -0.018659 0.047270
v -0.110409 -0.017772 0.078788
v 0.323268 0.000000 0.018954
v 0.251974 -0.001342 0.013728
v 0.323389 -0.000963 0.015098
v 0.251844 0.000000 0.018294
v 0.164397 -0.001609 0.016561
v 0.164600 0.000000 0.023971
v -0.071180 -0.037082 0.006861
v -0.063734 -0.034987 0.014101
v -0.072307 -0.034141 0.007837
v -0.060183 -0.040774 0.015880
v -0.055255 -0.035056 0.012822
v -0.071180 -0.037082 0.006861
v -0.071682 -0.032024 0.005310
v -0.060183 -0.040774 0.015880
v -0.048938 -0.040802 0.045089
v -0.055356 -0.026294 0.032461
v -0.081887 -0.040119 0.038755
v -0.063734 -0.034987 0.014101
v -0.071682 -0.032024 0.005310
v -0.072307 -0.034141 0.007837
v -0.055255 -0.035056 0.012822
v -0.055356 -0.026294 0.032461
v -0.081887 -0.040119 0.038755
v 0.034125 -0.052478 0.024722
v 0.053517 -0.041370 0.008379
v 0.029789 -0.049969 0.047844
v 0.052110 -0.028759 0.026331
v 0.058951 -0.044015 0.005729
v 0.058376 -0.037484 0.006176
v 0.016099 -0.033860 0.030530
v 0.052110 -0.028759 0.026331
v 0.058376 -0.037484 0.006176
v 0.034125 -0.052478 0.024722
v 0.108418 -0.011684 0.036144
v 0.114068 0.000000 0.054279
v 0.164397 -0.001609 0.016561
v -0.072307 0.034141 0.007837
v -0.092266 0.040971 0.003373
v -0.091529 0.025795 0.002154
v -0.071180 0.037082 0.006861
v -0.108429 0.018659 0.047270
v -0.172491 0.000000 0.051635
v -0.183894 0.011469 0.070648
v -0.190366 0.000000 0.072012
v -0.121296 0.000000 0.097744
v -0.121676 0.014022 0.096229
v -0.128455 0.023785 0.090387
v -0.190366 0.000000 0.072012
v -0.183894 0.011469 0.070648
v 0.058951 0.044015 0.005729
v 0.009999 0.047519 0.003515
v 0.053517 0.041370 0.008379
v 0.010169 0.032645 0.001857
v 0.058376 0.037484 0.006176
v -0.108429 0.018659 0.047270
v -0.110409 0.017772 0.078788
v 0.251974 0.001342 0.013728
v 0.323268 0.000000 0.018954
v 0.323389 0.000963 0.015098
v 0.251844 0.000000 0.018294
v 0.164494 0.001609 0.016670
v 0.164600 0.000000 0.023971
v 0.108418 0.011684 0.036144
v 0.114068 0.000000 0.054279
v -0.063734 0.034987 0.014101
v -0.071180 0.037082 0.006861
v -0.072307 0.034141 0.007837
v -0.060183 0.040774 0.015880
v -0.055255 0.035056 0.012822
v -0.071682 0.032024 0.005310
v -0.071180 0.037082 0.006861
v -0.060183 0.040774 0.015880
v -0.048938 0.040802 0.045089
v -0.081887 0.040119 0.038755
v -0.055356 0.026294 0.032461
v -0.072307 0.034141 0.007837
v -0.071682 0.032024 0.005310
v -0.063734 0.034987 0.014101
v -0.055255 0.035056 0.012822
v -0.055356 0.026294 0.032461
v -0.081887 0.040119 0.038755
v 0.053517 0.041370 0.008379
v 0.034125 0.052478 0.024722
v 0.029789 0.049969 0.047844
v 0.016099 0.033860 0.030530
v 0.052110 0.028759 0.026331
v 0.058951 0.044015 0.005729
v 0.058376 0.037484 0.006176
v 0.034125 0.052478 0.024722
v 0.114068 0.000000 0.054279
v 0.108418 0.011684 0.036144
v 0.053141 0.000000 0.114524
v 0.031965 0.044537 0.095643
v 0.052110 0.028759 0.026331
v 0.029789 0.049969 0.047844
v -0.048938 0.040802 0.045089
v 0.016099 0.033860 0.030530
v 0.018209 0.000000 0.119800
v -0.110409 0.017772 0.078788
v -0.081887 0.040119 0.038755
v -0.108429 0.018659 0.047270
v -0.113572 0.000000 0.094115
v -0.055356 0.026294 0.032461
v 0.016099 -0.033860 0.030530
v 0.052110 -0.028759 0.026331
v 0.052110 0.028759 0.026331
v 0.108418 0.011684 0.036144
v 0.108418 -0.011684 0.036144
v -0.056226 -0.026294 0.025306
v -0.081887 0.040119 0.038755
v -0.108429 -0.018659 0.047270
v -0.108429 0.018659 0.047270
v 0.164397 -0.001609 0.016561
v 0.108418 -0.011684 0.036144
v 0.108418 0.011684 0.036144
v 0.164494 0.001609 0.016670
vn -0.2193 0.0153 -0.9755
vn -0.0680 -0.0000 -0.9977
vn -0.2475 0.7680 -0.5907
vn -0.2281 0.2922 0.9288
vn -0.0641 0.4566 0.8874
vn -0.2465 0.0894 0.9650
vn 0.2921 0.9530 0.0803
vn -0.0641 0.4565 0.8874
vn -0.0118 -0.9984 0.0557
vn -0.0910 -0.3448 0.9343
vn -0.3739 -0.7271 0.5758
vn 0.9266 -0.3727 0.0502
vn 0.6573 -0.3482 0.6684
vn 0.3353 0.1335 0.9326
vn -0.3740 -0.7271 0.5758
vn 0.1547 -0.8361 0.5264
vn 0.2829 -0.4807 0.8300
vn 0.1547 -0.8361 0.5263
vn 0.0027 -0.9674 0.2532
vn 0.0067 -0.9701 0.2425
vn 0.6059 -0.7470 0.2736
vn -0.6847 0.0892 0.7233
vn 0.5059 -0.6552 0.5610
vn -0.2281 -0.2922 0.9288
vn 0.1294 -0.7442 0.6553
vn 0.2921 -0.9530 0.0803
vn -0.3739 0.7271 0.5758
vn 0.6573 0.3482 0.6684
vn 0.9266 0.3727 0.0502
vn 0.3353 -0.1335 0.9326
vn -0.3740 0.7271 0.5758
vn 0.1547 0.8361 0.5264
vn 0.2829 0.4807 0.8300
vn 0.1547 0.8361 0.5263
vn 0.0027 0.9674 0.2532
vn 0.0067 0.9701 0.2425
vn 0.7551 0.4223 0.5015
vn -0.6847 -0.0892 0.7233
vn 0.5985 0.7514 0.2779
vn 0.2770 -0.8408 0.4650
vn 0.3078 -0.9432 -0.1252
vn 0.4153 -0.8663 0.2774
vn 0.3832 -0.5579 0.7362
vn 0.4418 -0.7675 0.4646
vn -0.0234 -0.5082 0.8609
vn 0.2829 -0.4808 0.8300
vn 0.2655 -0.9550 -0.1320
vn -0.3866 -0.8779 -0.2825
vn -0.2690 -0.9010 -0.3404
vn 0.0992 -0.9917 0.0817
vn -0.3488 -0.7434 -0.5707
vn 0.4133 -0.7202 -0.5572
vn -0.0246 -0.9052 -0.4244
vn -0.2691 -0.9009 -0.3404
vn 0.9793 -0.0023 -0.2022
vn -0.2599 -0.7500 -0.6083
vn -0.5256 -0.8288 -0.1919
vn -0.5102 -0.5662 -0.6475
vn -0.7080 -0.4081 0.5764
vn -0.1016 -0.2215 0.9699
vn -0.3740 -0.7270 0.5758
vn -0.7080 -0.4080 0.5764
vn -0.0987 -0.0857 0.9914
vn 0.5058 -0.6553 0.5610
vn -0.0650 0.2265 0.9718
vn 0.1699 0.7986 0.5774
vn -0.2691 -0.9009 -0.3405
vn -0.5255 -0.8288 -0.1919
vn 0.0060 -0.9678 0.2516
vn 0.1425 -0.9362 0.3214
vn -0.7990 0.3631 0.4793
vn 0.0826 -0.9892 -0.1210
vn 0.6966 0.1958 -0.6903
vn 0.2921 0.9530 0.0802
vn 0.2656 -0.9550 -0.1320
vn -0.7990 0.3630 0.4793
vn 0.6966 0.1958 -0.6902
vn -0.5324 -0.5936 -0.6035
vn -0.6847 0.0892 0.7234
vn 0.1700 0.7986 0.5774
vn 0.9793 -0.0022 -0.2023
vn 0.1699 0.7985 0.5774
vn 0.4153 -0.8663 0.2775
vn -0.1734 0.1312 0.9761
vn -0.2465 -0.0894 0.9650
vn -0.0118 0.9984 0.0557
vn -0.2599 0.7500 -0.6083
vn -0.5102 0.5662 -0.6475
vn -0.5256 0.8288 -0.1919
vn -0.7080 0.4081 0.5764
vn -0.1016 0.2215 0.9699
vn -0.3740 0.7270 0.5758
vn -0.7080 0.4080 0.5764
vn 0.7551 0.4222 0.5015
vn -0.0987 0.0857 0.9914
vn -0.0650 -0.2265 0.9718
vn 0.1797 -0.8473 0.4998
vn -0.5255 0.8288 -0.1919
vn 0.0061 0.9675 0.2527
vn -0.0251 0.9864 -0.1625
vn 0.1428 0.9354 0.3235
vn 0.3513 0.8479 -0.3970
vn 0.4418 0.7668 0.4656
vn -0.7990 -0.3631 0.4793
vn 0.0826 0.9892 -0.1210
vn 0.6966 -0.1958 -0.6903
vn 0.2921 -0.9530 0.0802
vn 0.2656 0.9550 -0.1320
vn -0.5600 0.5993 -0.5721
vn -0.7990 -0.3630 0.4793
vn 0.1076 -0.0889 -0.9902
vn 0.6966 -0.1958 -0.6902
vn 0.1077 -0.0889 -0.9902
vn -0.5600 0.5993 -0.5720
vn 0.5984 0.7514 0.2779
vn -0.6805 -0.0879 0.7275
vn -0.5324 0.5936 -0.6035
vn 0.1025 0.9910 0.0858
vn -0.2541 0.3183 -0.9133
vn 0.7738 0.2481 -0.5829
vn 0.7738 0.2480 -0.5828
vn 0.1797 -0.8472 0.4999
vn -0.2542 0.3183 -0.9133
vn 0.3832 0.5579 0.7362
vn 0.2770 0.8408 0.4650
vn 0.0992 0.9917 0.0817
vn 0.2655 0.9550 -0.1320
vn -0.0234 0.5082 0.8609
vn -0.5600 0.5992 -0.5721
vn 0.2829 0.4808 0.8300
vn -0.0467 0.0295 -0.9985
vn 0.0282 -0.0000 -0.9996
vn -0.0813 0.0026 -0.9967
vn -0.1703 0.0761 -0.9824
vn -0.3291 0.0050 -0.9443
vn -0.0250 0.9864 -0.1625
vt 0.956512 0.505905
vt 0.596237 0.600433
vt 0.965912 0.618431
vt 0.396812 0.869675
vt 0.496227 0.918265
vt 0.510412 0.819209
vt 0.396812 0.869675
vt 0.396812 0.869675
vt 0.496227 0.918265
vt 0.390350 0.847534
vt 0.510412 0.819209
vt 0.000793 0.516968
vt 0.025245 0.455581
vt 0.126953 0.530685
vt 0.006310 0.111343
vt 0.073392 0.162449
vt 0.016556 0.041252
vt 0.006310 0.111343
vt 0.002106 0.168762
vt 0.073392 0.162449
vt 0.004562 0.074631
vt 0.006310 0.111343
vt 0.016556 0.041252
vt 0.835342 0.932526
vt 0.822121 0.854820
vt 0.881851 0.873566
vt 0.986717 0.990097
vt 0.980322 0.510777
vt 0.943405 0.989532
vt 0.128693 0.750412
vt 0.208065 0.674477
vt 0.246613 0.698837
vt 0.806854 0.808060
vt 0.917267 0.773720
vt 0.846481 0.767242
vt 0.396812 0.869675
vt 0.496227 0.918265
vt 0.444372 0.887050
vt 0.000793 0.516968
vt 0.126953 0.530685
vt 0.025245 0.455581
vt 0.006310 0.111343
vt 0.016556 0.041252
vt 0.138733 0.128464
vt 0.006310 0.111343
vt 0.138733 0.128464
vt 0.002106 0.168762
vt 0.004562 0.074631
vt 0.016556 0.041252
vt 0.006310 0.111343
vt 0.822121 0.854820
vt 0.835342 0.932526
vt 0.881851 0.873566
vt 0.974991 0.989929
vt 0.943405 0.989532
vt 0.980322 0.510777
vt 0.272699 0.686720
vt 0.208065 0.674477
vt 0.128693 0.750412
vt 0.917267 0.773720
vt 0.806854 0.808060
vt 0.846481 0.767242
vt 0.374649 0.421126
vt 0.239464 0.229950
vt 0.028286 0.244408
vt 0.278595 0.594025
vt 0.007019 0.379974
vt 0.422211 0.613487
vt 0.948097 0.387184
vt 0.960068 0.484726
vt 0.708954 0.194061
vt 0.848663 0.201935
vt 0.976540 0.264481
vt 0.361301 0.242916
vt 0.408958 0.086132
vt 0.709099 0.096741
vt 0.706474 0.002708
vt 0.820923 0.093638
vt 0.960236 0.040909
vt 0.239464 0.229950
vt 0.961212 0.562168
vt 0.544422 0.706561
vt 0.596237 0.600433
vt 0.493279 0.717567
vt 0.804443 0.922256
vt 0.822121 0.854820
vt 0.806854 0.808060
vt 0.493279 0.717567
vt 0.544422 0.706561
vt 0.309486 0.654007
vt 0.480499 0.616608
vt 0.284348 0.631683
vt 0.480850 0.687744
vt 0.287811 0.678574
vt 0.961212 0.562168
vt 0.917267 0.773720
vt 0.923141 0.937042
vt 0.623556 0.984065
vt 0.923725 0.980350
vt 0.623053 0.937345
vt 0.255217 0.989208
vt 0.257202 0.911591
vt 0.378677 0.884979
vt 0.357994 0.837112
vt 0.387680 0.874458
vt 0.330940 0.851128
vt 0.318382 0.892296
vt 0.378677 0.884979
vt 0.378632 0.905182
vt 0.330940 0.851128
vt 0.221359 0.835937
vt 0.225433 0.900391
vt 0.300735 0.734589
vt 0.918076 0.096893
vt 0.875946 0.072159
vt 0.884308 0.066849
vt 0.898941 0.137352
vt 0.986938 0.151527
vt 0.996765 0.051514
vt 0.078857 0.710297
vt 0.208065 0.674477
vt 0.041206 0.761032
vt 0.176407 0.803078
vt 0.246613 0.698837
vt 0.284767 0.733101
vt 0.027481 0.658966
vt 0.123945 0.552602
vt 0.264229 0.659866
vt 0.078857 0.710297
vt 0.019714 0.956827
vt 0.049590 0.846619
vt 0.255383 0.980064
vt 0.396812 0.869675
vt 0.510412 0.819209
vt 0.496227 0.918265
vt 0.390350 0.847534
vt 0.965912 0.618431
vt 0.596237 0.600433
vt 0.544422 0.706561
vt 0.493279 0.717567
vt 0.804443 0.922256
vt 0.822121 0.854820
vt 0.806854 0.808060
vt 0.493279 0.717567
vt 0.544422 0.706561
vt 0.284348 0.631683
vt 0.480499 0.616608
vt 0.309486 0.654007
vt 0.480850 0.687744
vt 0.287811 0.678574
vt 0.965912 0.618431
vt 0.917267 0.773720
vt 0.623456 0.969154
vt 0.923141 0.937042
vt 0.923576 0.968620
vt 0.623053 0.937345
vt 0.255714 0.961777
vt 0.257202 0.911591
vt 0.024994 0.914478
vt 0.049590 0.846619
vt 0.357994 0.837112
vt 0.378677 0.884979
vt 0.387680 0.874458
vt 0.330940 0.851128
vt 0.318382 0.892296
vt 0.378632 0.905182
vt 0.378677 0.884979
vt 0.330940 0.851128
vt 0.221359 0.835937
vt 0.300735 0.734589
vt 0.225433 0.900391
vt 0.884308 0.066849
vt 0.875946 0.072159
vt 0.918076 0.096893
vt 0.898941 0.137352
vt 0.986938 0.151527
vt 0.996765 0.051514
vt 0.208065 0.674477
vt 0.078857 0.710297
vt 0.041206 0.761032
vt 0.027481 0.658966
vt 0.123945 0.552602
vt 0.265690 0.715969
vt 0.248749 0.662262
vt 0.078857 0.710297
vt 0.007019 0.379974
vt 0.028286 0.244408
vt 0.278595 0.594025
vt 0.374649 0.421126
vt 0.239464 0.229950
vt 0.361301 0.242916
vt 0.708954 0.194061
vt 0.414047 0.168274
vt 0.422211 0.613487
vt 0.948097 0.387184
vt 0.848663 0.201935
vt 0.976540 0.264481
vt 0.960068 0.484726
vt 0.709099 0.096741
vt 0.403870 0.003990
vt 0.281479 0.002426
vt 0.267846 0.123006
vt 0.026657 0.030167
vt 0.028519 0.002197
vt 0.706474 0.002708
vt 0.820923 0.093638
vt 0.962708 0.009781
vt 0.957764 0.072037
vt 0.255217 0.989208
vt 0.014435 0.999176
vt 0.024994 0.914478
vt 0.255714 0.961777
s 1
usemtl mtl_sewer_rat
f 1/1/1 2/2/2 3/3/3
f 4/4/4 5/5/5 6/6/6
f 7/7/4 8/8/7 9/9/8
f 10/10/9 4/4/4 11/11/10
f 12/12/11 13/13/12 14/14/13
f 15/15/14 16/16/13 17/17/12
f 18/18/14 19/19/15 20/20/13
f 21/21/16 22/22/14 23/23/12
f 24/24/17 25/25/14 26/26/18
f 27/27/19 28/28/20 29/29/19
f 30/30/21 31/31/22 32/32/23
f 33/33/15 34/34/18 35/35/12
f 36/36/24 37/37/25 38/38/26
f 39/39/27 40/40/28 41/41/29
f 42/42/30 43/43/29 44/44/28
f 45/45/30 46/46/28 47/47/31
f 48/48/32 49/49/29 50/50/30
f 51/51/30 52/52/33 53/53/34
f 54/54/35 55/55/35 56/56/36
f 57/57/37 58/58/38 59/59/39
f 60/60/34 61/61/31 62/62/29
f 63/63/40 64/64/41 65/65/42
f 63/63/40 65/65/42 66/66/43
f 66/66/43 65/65/42 67/67/44
f 68/68/45 63/63/40 66/66/43
f 68/68/45 69/69/18 63/63/40
f 70/70/46 69/69/18 68/68/45
f 71/71/47 63/63/40 69/69/18
f 71/71/47 69/69/18 72/72/48
f 73/73/49 72/72/48 69/69/18
f 74/74/50 63/63/40 71/71/47
f 71/71/47 75/75/51 74/74/50
f 76/76/52 75/75/51 71/71/47
f 75/75/51 76/76/52 77/77/53
f 77/77/53 76/76/52 78/78/48
f 77/77/53 78/78/48 79/79/54
f 63/63/40 74/74/50 80/80/55
f 81/81/56 82/82/57 83/83/58
f 82/82/57 84/84/59 83/83/58
f 85/85/60 86/86/14 24/24/17
f 85/85/60 87/87/61 86/86/14
f 88/88/62 87/87/61 85/85/60
f 89/89/57 87/87/61 88/88/62
f 90/90/22 91/91/63 92/92/64
f 93/93/65 91/91/63 90/90/22
f 93/93/65 90/90/22 94/94/66
f 95/95/67 87/87/15 82/82/68
f 95/95/67 96/96/18 87/87/15
f 97/97/19 98/98/69 99/99/19
f 100/100/69 98/98/69 97/97/19
f 98/98/69 100/100/69 101/101/70
f 101/101/70 100/100/69 102/102/70
f 103/103/9 104/104/71 105/105/4
f 106/106/72 104/104/71 103/103/9
f 107/107/73 108/108/9 109/109/74
f 107/107/73 110/110/72 108/108/9
f 111/111/75 110/110/72 107/107/73
f 112/112/52 111/111/75 107/107/73
f 111/111/75 113/113/48 110/110/72
f 110/110/72 113/113/48 104/104/76
f 114/114/71 115/115/74 116/116/4
f 117/117/77 115/115/74 114/114/71
f 114/114/71 118/118/52 117/117/77
f 119/119/48 118/118/52 114/114/71
f 120/120/78 121/121/79 30/30/21
f 122/122/50 120/120/78 30/30/21
f 122/122/50 30/30/21 123/123/55
f 30/30/21 124/124/23 123/123/55
f 123/123/55 124/124/23 125/125/80
f 126/126/51 120/120/78 122/122/50
f 31/31/22 127/127/81 128/128/82
f 129/129/78 127/127/81 31/31/22
f 126/126/51 127/127/81 129/129/78
f 130/130/83 102/102/70 131/131/44
f 132/132/70 102/102/70 130/130/83
f 133/133/24 134/134/84 135/135/85
f 136/136/86 134/134/84 133/133/24
f 137/137/87 138/138/88 139/139/89
f 139/139/89 138/138/88 140/140/90
f 141/141/91 52/52/33 142/142/30
f 141/141/91 142/142/30 143/143/92
f 144/144/93 141/141/91 143/143/92
f 145/145/89 144/144/93 143/143/92
f 146/146/94 147/147/95 148/148/38
f 148/148/38 147/147/95 149/149/96
f 149/149/96 150/150/97 148/148/38
f 151/151/3 139/139/98 143/143/31
f 151/151/3 143/143/31 152/152/34
f 153/153/99 154/154/35 155/155/35
f 156/156/99 154/154/35 153/153/99
f 157/157/100 156/156/99 153/153/99
f 158/158/101 156/156/99 157/157/100
f 159/159/102 158/158/101 157/157/100
f 160/160/103 158/158/101 159/159/102
f 161/161/104 162/162/86 163/163/24
f 164/164/105 162/162/86 161/161/104
f 165/165/106 166/166/107 167/167/86
f 165/165/106 167/167/86 168/168/105
f 169/169/108 165/165/106 168/168/105
f 169/169/108 168/168/105 170/170/109
f 170/170/109 168/168/105 161/161/110
f 171/171/111 165/165/106 169/169/108
f 172/172/24 173/173/107 174/174/104
f 174/174/104 173/173/107 175/175/112
f 176/176/113 174/174/104 175/175/112
f 177/177/114 174/174/104 176/176/113
f 59/59/115 178/178/116 179/179/117
f 180/180/118 59/59/115 179/179/117
f 181/181/119 180/180/118 179/179/117
f 180/180/118 182/182/120 59/59/115
f 182/182/120 183/183/94 59/59/115
f 182/182/121 184/184/122 57/57/94
f 182/182/121 58/58/38 184/184/122
f 185/185/117 58/58/38 182/182/121
f 181/181/123 185/185/117 182/182/121
f 186/186/103 187/187/102 188/188/124
f 188/188/124 187/187/102 189/189/125
f 189/189/125 187/187/102 190/190/120
f 189/189/125 190/190/120 191/191/126
f 192/192/127 189/189/125 191/191/126
f 193/193/123 192/192/127 191/191/126
f 194/194/128 188/188/124 189/189/125
f 195/195/34 194/194/128 189/189/125
f 195/195/34 189/189/125 192/192/127
f 192/192/127 196/196/129 195/195/34
f 197/197/3 195/195/34 196/196/129
f 198/198/130 194/194/128 195/195/34
f 199/199/111 192/192/127 193/193/123
f 200/200/131 199/199/111 193/193/123
f 193/193/123 201/201/132 200/200/131
f 202/202/120 201/201/132 193/193/123
f 203/203/102 201/201/132 202/202/120
f 204/204/133 201/201/132 203/203/102
f 205/205/134 199/199/111 200/200/131
f 205/205/134 206/206/109 199/199/111
f 205/205/134 207/207/1 206/206/109
f 206/206/109 207/207/1 208/208/3
f 209/209/135 210/210/133 211/211/102
f 212/212/136 209/209/135 211/211/102
